<?xml version="1.0" encoding="utf-8"?>
<!-- Generator: Adobe Illustrator 17.1.0, SVG Export Plug-In . SVG Version: 6.00 Build 0)  -->
<!DOCTYPE svg PUBLIC "-//W3C//DTD SVG 1.1//EN" "http://www.w3.org/Graphics/SVG/1.1/DTD/svg11.dtd">
<svg version="1.1" id="Layer_1" xmlns="http://www.w3.org/2000/svg" xmlns:xlink="http://www.w3.org/1999/xlink" x="0px" y="0px"
	 viewBox="0 0 470.8 106.2" enable-background="new 0 0 470.8 106.2" xml:space="preserve">
<g>
	<path fill="#42A4F5" d="M29.3,64.6c0.1,2.5,0.6,4.8,1.7,7c1,2.2,2.4,4,4.1,5.7c1.7,1.6,3.6,2.9,5.9,3.8c2.2,0.9,4.6,1.4,7.1,1.4
		c4.2,0,7.7-1,10.7-3.1c3-2,5.1-4.8,6.5-8.2h15.3c-1.4,4.6-3.2,8.5-5.4,11.7c-2.2,3.2-4.8,5.8-7.7,7.8c-2.9,2-6,3.5-9.3,4.4
		c-3.3,0.9-6.7,1.4-10,1.4c-4.6,0-8.8-0.9-12.8-2.6s-7.4-4-10.4-7c-2.9-2.9-5.3-6.4-7-10.3c-1.7-4-2.6-8.2-2.6-12.8
		c0-4.6,0.9-8.8,2.6-12.8c1.7-4,4-7.4,7-10.3c2.9-2.9,6.4-5.2,10.4-7c4-1.7,8.2-2.6,12.8-2.6c5.1,0,9.6,0.9,13.6,2.8
		c4,1.8,7.4,4.3,10.2,7.4c2.8,3.1,5,6.7,6.6,10.7c1.6,4,2.4,8.3,2.5,12.8H29.3z M64.1,52.5c-3-5.1-8.3-7.7-15.9-7.8
		c-7.7,0.2-13.1,2.8-16.1,7.8H64.1z"/>
	<path fill="#F2F3F7" d="M147.1,79.4v14.4H88.9V9.7h14.4v69.7H147.1z"/>
	<path fill="#F2F3F7" d="M166.8,64.6c0.1,2.5,0.6,4.8,1.7,7c1,2.2,2.4,4,4.1,5.7c1.7,1.6,3.6,2.9,5.9,3.8c2.2,0.9,4.6,1.4,7.1,1.4
		c4.2,0,7.7-1,10.7-3.1c3-2,5.1-4.8,6.5-8.2H218c-1.4,4.6-3.2,8.5-5.4,11.7c-2.2,3.2-4.8,5.8-7.7,7.8c-2.9,2-6,3.5-9.3,4.4
		c-3.3,0.9-6.7,1.4-10,1.4c-4.6,0-8.8-0.9-12.8-2.6s-7.4-4-10.4-7c-2.9-2.9-5.3-6.4-7-10.3c-1.7-4-2.6-8.2-2.6-12.8
		c0-4.6,0.9-8.8,2.6-12.8c1.7-4,4-7.4,7-10.3c2.9-2.9,6.4-5.2,10.4-7c4-1.7,8.2-2.6,12.8-2.6c5.1,0,9.6,0.9,13.6,2.8
		c4,1.8,7.4,4.3,10.2,7.4c2.8,3.1,5,6.7,6.6,10.7c1.6,4,2.4,8.3,2.5,12.8H166.8z M201.5,52.5c-3-5.1-8.3-7.7-15.9-7.8
		c-7.7,0.2-13.1,2.8-16.1,7.8H201.5z"/>
	<path fill="#F2F3F7" d="M255.4,77c0.1-2.4-0.7-4.1-2.5-5.2c-1.7-1-4.3-2-7.6-2.9c-2.2-0.6-4.4-1.2-6.6-2c-2.2-0.8-4.1-1.9-6-3.2
		c-1.8-1.3-3.3-3-4.5-4.9c-1.2-2-2-4.4-2.3-7.3c-0.2-2.9,0.2-5.6,1.2-8.1c1-2.5,2.6-4.6,4.6-6.5c2-1.8,4.3-3.3,7-4.4
		c2.7-1.1,5.6-1.6,8.6-1.6c2.6,0,5,0.4,7.2,1.3c2.2,0.9,4.2,2,6,3.4c1.8,1.4,3.2,3,4.3,4.7c1.1,1.7,1.9,3.4,2.3,5.1h-14.1
		c-0.8-1.5-2.9-2.3-6.3-2.3c-2,0-3.8,0.6-5.4,1.8c-1.6,1.2-2.2,2.9-1.7,5.2c0.3,1.4,1.5,2.4,3.5,3.2c2,0.8,5.1,1.9,9.2,3.2
		c2.4,0.8,4.6,1.8,6.7,2.9c2.1,1.1,3.9,2.5,5.5,4.1c1.6,1.6,2.8,3.5,3.7,5.8c0.9,2.2,1.3,4.9,1.3,7.8c0,3-0.6,5.8-1.9,8.1
		c-1.2,2.4-2.9,4.4-5,6c-2.1,1.6-4.5,2.9-7.2,3.8c-2.7,0.9-5.6,1.3-8.5,1.3c-2.6,0-5.3-0.5-8-1.5c-2.7-1-5.1-2.4-7.2-4.2
		c-2.1-1.8-3.9-4-5.2-6.6c-1.4-2.6-2-5.5-2-8.6h13.9c0.1,2.2,0.9,4.1,2.5,5.7c1.6,1.6,3.7,2.5,6.2,2.5c2.4,0,4.4-0.7,5.8-2.2
		C254.6,80.2,255.3,78.6,255.4,77z"/>
	<path fill="#F2F3F7" d="M306.6,77c0.1-2.4-0.7-4.1-2.5-5.2c-1.7-1-4.3-2-7.6-2.9c-2.2-0.6-4.4-1.2-6.6-2c-2.2-0.8-4.1-1.9-6-3.2
		c-1.8-1.3-3.3-3-4.5-4.9c-1.2-2-2-4.4-2.3-7.3c-0.2-2.9,0.2-5.6,1.2-8.1c1-2.5,2.6-4.6,4.6-6.5c2-1.8,4.3-3.3,7-4.4
		c2.7-1.1,5.6-1.6,8.6-1.6c2.6,0,5,0.4,7.2,1.3c2.2,0.9,4.2,2,6,3.4c1.8,1.4,3.2,3,4.3,4.7c1.1,1.7,1.9,3.4,2.3,5.1h-14.1
		c-0.8-1.5-2.9-2.3-6.3-2.3c-2,0-3.8,0.6-5.4,1.8c-1.6,1.2-2.2,2.9-1.7,5.2c0.3,1.4,1.5,2.4,3.5,3.2c2,0.8,5.1,1.9,9.2,3.2
		c2.4,0.8,4.6,1.8,6.7,2.9c2.1,1.1,3.9,2.5,5.5,4.1c1.6,1.6,2.8,3.5,3.7,5.8c0.9,2.2,1.3,4.9,1.3,7.8c0,3-0.6,5.8-1.9,8.1
		c-1.2,2.4-2.9,4.4-5,6c-2.1,1.6-4.5,2.9-7.2,3.8c-2.7,0.9-5.6,1.3-8.5,1.3c-2.6,0-5.3-0.5-8-1.5c-2.7-1-5.1-2.4-7.2-4.2
		c-2.1-1.8-3.9-4-5.2-6.6c-1.4-2.6-2-5.5-2-8.6h13.9c0.1,2.2,0.9,4.1,2.5,5.7c1.6,1.6,3.7,2.5,6.2,2.5c2.4,0,4.4-0.7,5.8-2.2
		S306.6,78.6,306.6,77z"/>
	<path fill="#F2F3F7" d="M327.3,63.7c0-4.6,0.9-8.8,2.6-12.8c1.7-4,4.1-7.4,7-10.3c3-2.9,6.4-5.2,10.4-7c4-1.7,8.2-2.6,12.8-2.6
		c4.6,0,8.8,0.9,12.8,2.6c4,1.7,7.4,4,10.3,7c2.9,2.9,5.2,6.4,7,10.3c1.7,4,2.6,8.2,2.6,12.8c0,4.6-0.9,8.8-2.6,12.8
		c-1.7,4-4,7.4-7,10.3c-2.9,2.9-6.4,5.3-10.3,7c-4,1.7-8.2,2.6-12.8,2.6c-4.6,0-8.8-0.9-12.8-2.6c-4-1.7-7.4-4-10.4-7
		c-3-2.9-5.3-6.4-7-10.3C328.2,72.5,327.3,68.3,327.3,63.7z M341.3,63.7c0,2.6,0.5,5,1.5,7.3c1,2.3,2.4,4.3,4,6c1.7,1.7,3.7,3,6,4
		c2.3,1,4.7,1.5,7.3,1.5s5-0.5,7.3-1.5c2.3-1,4.3-2.3,6-4c1.7-1.7,3-3.7,4-6c1-2.3,1.5-4.7,1.5-7.3c0-2.6-0.5-5-1.5-7.3
		c-1-2.3-2.4-4.3-4-6c-1.7-1.7-3.7-3-6-4c-2.3-1-4.7-1.5-7.3-1.5s-5,0.5-7.3,1.5c-2.3,1-4.3,2.3-6,4c-1.7,1.7-3,3.7-4,6
		C341.8,58.7,341.3,61.1,341.3,63.7z"/>
	<path fill="#F2F3F7" d="M441.1,58.4c0-1.8-0.3-3.4-1-5.1c-0.7-1.6-1.6-3-2.8-4.2c-1.2-1.2-2.6-2.2-4.2-2.9
		c-1.6-0.7-3.3-1.1-5.2-1.1c-1.8,0-3.6,0.4-5.2,1.1c-1.6,0.8-3,1.7-4.2,2.9c-1.2,1.2-2.2,2.6-2.9,4.2c-0.7,1.6-1.1,3.2-1.1,4.9
		l0.1,35.5h-14.1V33.7h13.9v3.5c1.6-2,3.5-3.5,5.8-4.6c2.2-1,4.8-1.6,7.6-1.7c3.7,0,7.2,0.7,10.5,2.2c3.3,1.4,6.3,3.4,8.8,5.9
		c2.5,2.5,4.5,5.4,6,8.7c1.4,3.3,2.2,6.9,2.2,10.6l0.1,35.5h-14.2L441.1,58.4z"/>
</g>
</svg>
